<?xml version="1.0" encoding="UTF-8"?>
<svg id="Layer_2" data-name="Layer 2" xmlns="http://www.w3.org/2000/svg" xmlns:xlink="http://www.w3.org/1999/xlink" viewBox="0 0 142.56 143.28">
  <defs>
    <style>
      .cls-1 {
        fill: url(#linear-gradient);
      }

      .cls-1, .cls-2, .cls-3, .cls-4 {
        stroke-width: 0px;
      }

      .cls-2 {
        fill: url(#linear-gradient-2);
      }

      .cls-3 {
        fill: url(#linear-gradient-3);
      }

      .cls-4 {
        fill: #fff;
      }
    </style>
    <linearGradient id="linear-gradient" x1="106.08" y1="120.53" x2="68.24" y2="3.24" gradientUnits="userSpaceOnUse">
      <stop offset="0" stop-color="#0094cd"/>
      <stop offset=".63" stop-color="#005dac"/>
      <stop offset=".82" stop-color="#00498e"/>
      <stop offset="1" stop-color="#222b61"/>
    </linearGradient>
    <linearGradient id="linear-gradient-2" x1="37.61" y1="14.23" x2="176.94" y2="125.56" gradientUnits="userSpaceOnUse">
      <stop offset="0" stop-color="#d7e155"/>
      <stop offset=".18" stop-color="#97cb5f"/>
      <stop offset=".42" stop-color="#00b387"/>
      <stop offset=".69" stop-color="#0094cd"/>
      <stop offset="1" stop-color="#005baa"/>
    </linearGradient>
    <linearGradient id="linear-gradient-3" x1="-31.89" y1="30.26" x2="175.94" y2="85.62" gradientUnits="userSpaceOnUse">
      <stop offset="0" stop-color="#87c661"/>
      <stop offset=".34" stop-color="#00b387"/>
      <stop offset=".56" stop-color="#0094cd"/>
      <stop offset="1" stop-color="#005baa"/>
    </linearGradient>
  </defs>
  <g id="Layer_1-2" data-name="Layer 1">
    <g>
      <path class="cls-4" d="M110,110.38c-.54,0-1.04.21-1.42.59l-2.66,2.66c-.68.67-1.05,1.57-1.05,2.53v20.54c0,.96.37,1.86,1.05,2.53l2.66,2.66c.38.38.88.59,1.42.59,1.11,0,2.01-.9,2.01-2.01v-28.09c0-1.11-.9-2.01-2.01-2.01Z"/>
      <path class="cls-4" d="M97,110.38c-.56,0-1.06.23-1.43.59l-12.44,12.89-12.44-12.89c-.36-.37-.87-.59-1.43-.59-1.11,0-2.01.9-2.01,2.01v28.09c0,1.11.9,2.01,2.01,2.01.54,0,1.04-.21,1.42-.59l2.66-2.66c.68-.67,1.05-1.57,1.05-2.53v-11.39l5.85,6.3c.77.77,1.62,1.37,2.88,1.37s2.12-.6,2.89-1.37l5.85-6.3v11.39c0,.96.37,1.86,1.05,2.53l2.66,2.66c.38.38.88.59,1.42.59,1.11,0,2.01-.9,2.01-2.01v-28.09c0-1.11-.9-2.01-2.01-2.01Z"/>
      <path class="cls-4" d="M140.5,110.38h-23.17c-1.02,0-1.94.74-2.05,1.76-.06.61.15,1.18.57,1.61l2.61,2.61c.66.66,1.54,1.03,2.47,1.03h4.41v19.32c0,.96.37,1.86,1.05,2.53l2.66,2.66c.38.38.89.59,1.43.59,1.11,0,2.01-.9,2.01-2.01v-23.09h4.41c.94,0,1.81-.37,2.47-1.03l2.61-2.61c.42-.42.63-1,.57-1.61-.11-1.02-1.03-1.76-2.05-1.76Z"/>
      <path class="cls-4" d="M16.09,110.38H3.57c-1.97,0-3.57,1.6-3.57,3.57v26.52c0,1.11.9,2.01,2.01,2.01.54,0,1.05-.21,1.43-.59l2.66-2.66c.68-.68,1.05-1.58,1.05-2.53v-3.85h8.94c3.07,0,5.74-1.1,7.91-3.28,2.18-2.14,3.29-4.82,3.29-7.96s-1.1-5.73-3.28-7.95c-2.18-2.18-4.84-3.28-7.92-3.28ZM18.95,124.51c-.81.81-1.74,1.2-2.85,1.2H7.15v-8.06h0v-.12h5.8s3.15,0,3.15,0c1.13,0,2.04.38,2.87,1.21.81.78,1.23,1.75,1.23,2.88s-.4,2.06-1.24,2.89Z"/>
      <path class="cls-4" d="M46.81,109.58c-9.29,0-16.85,7.56-16.85,16.85s7.56,16.85,16.85,16.85,16.85-7.56,16.85-16.85-7.56-16.85-16.85-16.85ZM46.81,136.12c-5.34,0-9.69-4.35-9.69-9.69s4.34-9.69,9.69-9.69,9.69,4.35,9.69,9.69-4.35,9.69-9.69,9.69Z"/>
      <g>
        <path class="cls-1" d="M71.54,93.83c16.1-.11,31.72-8.51,40.35-23.46,8.61-14.92,8.1-32.59.2-46.57h0s-.02-.03-.02-.04c-.06-.1-.11-.2-.17-.3C101.88,6.11,79.71.16,62.36,10.18c-8.62,4.98-14.42,12.96-16.85,21.86-2.35,8.6-1.54,18.05,2.92,26.48-3.78-7.46-3.84-16.63.65-24.42,4.5-7.8,12.49-12.34,20.87-12.78h0c.44-.02.88-.02,1.32-.02,20.03,0,36.26,16.24,36.26,36.26,0,3.31-.44,6.51-1.27,9.55h0c-4.17,15.31-18.12,26.59-34.72,26.71Z"/>
        <path class="cls-2" d="M111.76,23.21C103.62,9.33,88.53,0,71.27,0S39,9.28,30.84,23.11h0s-.02.03-.02.04c-.06.1-.12.2-.17.3-10.01,17.35-4.07,39.52,13.27,49.54,8.62,4.98,18.43,6.01,27.36,3.67,8.62-2.27,16.4-7.69,21.47-15.77-4.57,7.01-12.48,11.64-21.47,11.64s-16.93-4.65-21.5-11.68h0c-.23-.37-.46-.75-.68-1.13-10.01-17.35-4.07-39.52,13.27-49.54,2.86-1.65,5.86-2.87,8.91-3.67h0c15.34-4.04,32.08,2.4,40.49,16.71Z"/>
        <path class="cls-3" d="M30.5,23.69c-7.96,14-8.49,31.73.14,46.68,8.61,14.91,24.17,23.31,40.23,23.46h0s.03,0,.05,0h.34c20.03,0,36.26-16.24,36.26-36.26,0-9.96-4.01-18.97-10.5-25.53-6.27-6.33-14.86-10.36-24.39-10.72,8.36.45,16.32,4.99,20.82,12.78,4.5,7.8,4.44,16.99.63,24.46h0c-.21.39-.42.77-.64,1.16-10.01,17.34-32.19,23.29-49.53,13.27-2.86-1.65-5.41-3.64-7.64-5.88h0c-11.17-11.26-13.97-28.98-5.77-43.43Z"/>
      </g>
    </g>
  </g>
</svg>