<?xml version="1.0" encoding="UTF-8"?>
<svg id="Layer_2" data-name="Layer 2" xmlns="http://www.w3.org/2000/svg" xmlns:xlink="http://www.w3.org/1999/xlink" viewBox="0 0 340.17 93.83">
  <defs>
    <style>
      .cls-1 {
        fill: url(#linear-gradient);
      }

      .cls-1, .cls-2, .cls-3, .cls-4 {
        stroke-width: 0px;
      }

      .cls-2 {
        fill: url(#linear-gradient-2);
      }

      .cls-3 {
        fill: url(#linear-gradient-3);
      }

      .cls-4 {
        fill: #fff;
      }
    </style>
    <linearGradient id="linear-gradient" x1="81.73" y1="120.53" x2="43.88" y2="3.24" gradientUnits="userSpaceOnUse">
      <stop offset="0" stop-color="#0094cd"/>
      <stop offset=".63" stop-color="#005dac"/>
      <stop offset=".82" stop-color="#00498e"/>
      <stop offset="1" stop-color="#222b61"/>
    </linearGradient>
    <linearGradient id="linear-gradient-2" x1="13.26" y1="14.23" x2="152.59" y2="125.56" gradientUnits="userSpaceOnUse">
      <stop offset="0" stop-color="#d7e155"/>
      <stop offset=".18" stop-color="#97cb5f"/>
      <stop offset=".42" stop-color="#00b387"/>
      <stop offset=".69" stop-color="#0094cd"/>
      <stop offset="1" stop-color="#005baa"/>
    </linearGradient>
    <linearGradient id="linear-gradient-3" x1="-56.24" y1="30.26" x2="151.58" y2="85.62" gradientUnits="userSpaceOnUse">
      <stop offset="0" stop-color="#87c661"/>
      <stop offset=".34" stop-color="#00b387"/>
      <stop offset=".56" stop-color="#0094cd"/>
      <stop offset="1" stop-color="#005baa"/>
    </linearGradient>
  </defs>
  <g id="Layer_1-2" data-name="Layer 1">
    <g>
      <g>
        <path class="cls-4" d="M288.36,21.37c-.86,0-1.66.33-2.27.94l-4.23,4.23c-1.08,1.07-1.67,2.5-1.67,4.03v32.69c0,1.52.59,2.95,1.67,4.02l4.23,4.23c.61.61,1.41.94,2.27.94,1.76,0,3.2-1.43,3.2-3.2V24.57c0-1.77-1.43-3.2-3.2-3.2Z"/>
        <path class="cls-4" d="M267.68,21.37c-.89,0-1.69.36-2.27.95l-19.79,20.51-19.79-20.51c-.58-.58-1.38-.95-2.27-.95-1.77,0-3.2,1.43-3.2,3.2v44.69c0,1.77,1.43,3.2,3.2,3.2.86,0,1.66-.33,2.27-.94l4.23-4.23c1.08-1.07,1.67-2.5,1.67-4.03v-18.13l9.3,10.03c1.23,1.23,2.58,2.17,4.59,2.17s3.37-.95,4.59-2.17l9.3-10.03v18.13c0,1.53.59,2.95,1.67,4.03l4.23,4.23c.6.61,1.41.94,2.26.94,1.76,0,3.2-1.43,3.2-3.2V24.57c0-1.77-1.43-3.2-3.2-3.2Z"/>
        <path class="cls-4" d="M336.89,21.37h-36.87c-1.63,0-3.09,1.18-3.26,2.8-.1.96.23,1.88.9,2.55l4.15,4.15c1.05,1.05,2.45,1.63,3.93,1.64h7.02v30.74c0,1.52.59,2.96,1.67,4.03l4.24,4.24c.61.61,1.41.94,2.27.94,1.77,0,3.2-1.44,3.2-3.2v-36.74h7.02c1.49,0,2.88-.59,3.93-1.63l4.15-4.15c.67-.67,1-1.59.91-2.55-.17-1.62-1.63-2.8-3.26-2.8Z"/>
        <path class="cls-4" d="M138.95,21.37h-19.92c-3.13,0-5.68,2.55-5.68,5.68v42.2c0,1.77,1.44,3.2,3.2,3.2.86,0,1.66-.33,2.27-.94l4.24-4.24c1.08-1.08,1.67-2.51,1.67-4.03v-6.12h14.22c4.89,0,9.13-1.76,12.58-5.21,3.47-3.41,5.23-7.67,5.23-12.67s-1.76-9.12-5.22-12.66c-3.47-3.47-7.71-5.23-12.6-5.23ZM143.49,43.85c-1.29,1.29-2.77,1.91-4.54,1.91h-14.22v-12.83h-.02v-.2h9.23s5.01,0,5.01,0c1.8,0,3.24.61,4.56,1.93,1.29,1.25,1.95,2.79,1.95,4.58s-.64,3.28-1.97,4.6Z"/>
        <path class="cls-4" d="M187.81,20.1c-14.79,0-26.82,12.03-26.82,26.81s12.03,26.81,26.82,26.81,26.81-12.03,26.81-26.81-12.03-26.81-26.81-26.81ZM187.81,62.33c-8.5,0-15.41-6.92-15.41-15.42s6.91-15.41,15.41-15.41,15.41,6.92,15.41,15.41-6.91,15.42-15.41,15.42Z"/>
      </g>
      <g>
        <path class="cls-1" d="M47.19,93.83c16.1-.11,31.72-8.51,40.35-23.46,8.61-14.92,8.1-32.59.2-46.57h0s-.02-.03-.02-.04c-.06-.1-.11-.2-.17-.3C77.53,6.11,55.35.16,38.01,10.18c-8.62,4.98-14.42,12.96-16.85,21.86-2.35,8.6-1.54,18.05,2.92,26.48-3.78-7.46-3.84-16.63.65-24.42,4.5-7.8,12.49-12.34,20.87-12.78h0c.44-.02.88-.02,1.32-.02,20.03,0,36.26,16.24,36.26,36.26,0,3.31-.44,6.51-1.27,9.55h0c-4.17,15.31-18.12,26.59-34.72,26.71Z"/>
        <path class="cls-2" d="M87.4,23.21C79.26,9.33,64.18,0,46.91,0S14.64,9.28,6.48,23.11h0s-.02.03-.02.04c-.06.1-.12.2-.17.3-10.01,17.35-4.07,39.52,13.27,49.54,8.62,4.98,18.43,6.01,27.36,3.67,8.62-2.27,16.4-7.69,21.47-15.77-4.57,7.01-12.48,11.64-21.47,11.64s-16.93-4.65-21.5-11.68h0c-.23-.37-.46-.75-.68-1.13-10.01-17.35-4.07-39.52,13.27-49.54,2.86-1.65,5.86-2.87,8.91-3.67h0c15.34-4.05,32.08,2.4,40.49,16.71Z"/>
        <path class="cls-3" d="M6.15,23.69c-7.96,14-8.49,31.73.14,46.68,8.61,14.91,24.17,23.31,40.23,23.46h0s.03,0,.05,0h.34c20.03,0,36.26-16.24,36.26-36.26,0-9.96-4.01-18.97-10.5-25.53-6.27-6.33-14.86-10.36-24.39-10.72,8.36.46,16.32,4.99,20.82,12.78,4.5,7.8,4.44,16.99.63,24.46h0c-.21.39-.42.77-.64,1.16-10.01,17.35-32.19,23.29-49.53,13.28-2.86-1.65-5.41-3.64-7.64-5.88h0C.75,55.85-2.05,38.13,6.15,23.69Z"/>
      </g>
    </g>
  </g>
</svg>